<svg width="40" height="40" viewBox="0 0 40 40" fill="none" xmlns="http://www.w3.org/2000/svg">
<g clip-path="url(#clip0_136_10711)">
<path d="M31.7949 0H8.20513C3.67356 0 0 3.58172 0 8V32C0 36.4183 3.67356 40 8.20513 40H31.7949C36.3264 40 40 36.4183 40 32V8C40 3.58172 36.3264 0 31.7949 0Z" fill="#FEFEFE"/>
<path d="M19.1598 26.0314C19.7698 26.6081 20.7438 26.5935 21.3353 25.9987C21.9268 25.404 21.9117 24.4544 21.3017 23.8777L19.1598 26.0314ZM13.6071 18.6925L14.6782 17.6156L14.6704 17.6084L13.6071 18.6925ZM13.6071 13.7618L14.6708 14.8456L14.6781 14.8387L13.6071 13.7618ZM21.3017 8.5769C21.9117 8.00022 21.9268 7.05058 21.3353 6.45583C20.7438 5.86107 19.7698 5.84642 19.1598 6.4231L21.3017 8.5769ZM21.3017 12.9686C20.6917 12.3919 19.7177 12.4065 19.1263 13.0013C18.5348 13.596 18.5498 14.5456 19.1598 15.1223L21.3017 12.9686ZM26.8545 20.3075L25.7834 21.3844L25.7912 21.3916L26.8545 20.3075ZM26.8545 25.2382L25.7908 24.1544L25.7835 24.1613L26.8545 25.2382ZM19.1598 30.4231C18.5498 30.9998 18.5348 31.9494 19.1263 32.5442C19.7177 33.1389 20.6917 33.1536 21.3017 32.5769L19.1598 30.4231ZM21.3017 23.8777L14.6782 17.6156L12.5362 19.7694L19.1598 26.0314L21.3017 23.8777ZM14.6704 17.6084C14.4876 17.438 14.3383 17.2277 14.2345 16.9883L11.4004 18.1566C11.6646 18.7655 12.0521 19.3182 12.5439 19.7767L14.6704 17.6084ZM14.2345 16.9883C14.1309 16.7496 14.0769 16.4905 14.0769 16.2273H11C11 16.89 11.136 17.5467 11.4004 18.1566L14.2345 16.9883ZM14.0769 16.2273C14.0769 15.9641 14.131 15.7048 14.2346 15.466L11.4005 14.2977C11.1361 14.9077 11 15.5645 11 16.2273H14.0769ZM14.2346 15.466C14.3384 15.2266 14.4877 15.0164 14.6708 14.8456L12.5435 12.678C12.0521 13.1365 11.6647 13.6887 11.4005 14.2977L14.2346 15.466ZM14.6781 14.8387L21.3017 8.5769L19.1598 6.4231L12.5362 12.6849L14.6781 14.8387ZM19.1598 15.1223L25.7834 21.3844L27.9253 19.2306L21.3017 12.9686L19.1598 15.1223ZM25.7912 21.3916C25.9739 21.562 26.1233 21.7723 26.2271 22.0117L29.0611 20.8434C28.7969 20.2345 28.4094 19.6818 27.9176 19.2233L25.7912 21.3916ZM26.2271 22.0117C26.3307 22.2504 26.3846 22.5095 26.3846 22.7727H29.4615C29.4615 22.11 29.3255 21.4533 29.0611 20.8434L26.2271 22.0117ZM26.3846 22.7727C26.3846 23.0359 26.3306 23.2952 26.227 23.534L29.061 24.7023C29.3254 24.0923 29.4615 23.4355 29.4615 22.7727H26.3846ZM26.227 23.534C26.1232 23.7734 25.9738 23.9836 25.7908 24.1544L27.9181 26.322C28.4094 25.8635 28.7968 25.3113 29.061 24.7023L26.227 23.534ZM25.7835 24.1613L19.1598 30.4231L21.3017 32.5769L27.9253 26.3151L25.7835 24.1613Z" fill="#3E90F0"/>
</g>
<defs>
<clipPath id="clip0_136_10711">
<rect width="40" height="40" fill="white"/>
</clipPath>
</defs>
</svg>
